HIERARCHY
ROOT Hips
{
 OFFSET 0.000000 0.000000 0.000000
 CHANNELS 6 Xposition Yposition Zposition Yrotation Xrotation Zrotation
 JOINT Chest
 {
  OFFSET 0.000000 9.588913 -0.003946
  CHANNELS 3 Yrotation Xrotation Zrotation
  JOINT Chest2
  {
   OFFSET 0.000000 9.541882 0.008053
   CHANNELS 3 Yrotation Xrotation Zrotation
   JOINT Chest3
   {
    OFFSET 0.000000 9.501360 0.000000
    CHANNELS 3 Yrotation Xrotation Zrotation
    JOINT Chest4
    {
     OFFSET 0.000000 9.491660 0.000000
     CHANNELS 3 Yrotation Xrotation Zrotation
     JOINT Neck
     {
      OFFSET 0.000000 14.331917 0.000000
      CHANNELS 3 Yrotation Xrotation Zrotation
      JOINT Head
      {
       OFFSET 0.000000 8.884799 0.017034
       CHANNELS 3 Yrotation Xrotation Zrotation
       End Site
       {
        OFFSET 0.000000 16.896195 0.008993
       }
      }
     }
     JOINT RightCollar
     {
      OFFSET -2.923010 9.499495 0.000000
      CHANNELS 3 Yrotation Xrotation Zrotation
      JOINT RightShoulder
      {
       OFFSET -13.795216 0.000000 0.000000
       CHANNELS 3 Yrotation Xrotation Zrotation
       JOINT RightElbow
       {
        OFFSET -30.272209 0.000000 0.000000
        CHANNELS 3 Yrotation Xrotation Zrotation
        JOINT RightWrist
        {
         OFFSET -24.478199 0.000000 0.000000
         CHANNELS 3 Yrotation Xrotation Zrotation
         End Site
         {
          OFFSET -18.090752 0.000000 0.000000
         }
        }
       }
      }
     }
     JOINT LeftCollar
     {
      OFFSET 2.923010 9.499495 0.000000
      CHANNELS 3 Yrotation Xrotation Zrotation
      JOINT LeftShoulder
      {
       OFFSET 13.795216 0.000000 0.000000
       CHANNELS 3 Yrotation Xrotation Zrotation
       JOINT LeftElbow
       {
        OFFSET 30.272209 0.000000 0.000000
        CHANNELS 3 Yrotation Xrotation Zrotation
        JOINT LeftWrist
        {
         OFFSET 24.478199 0.000000 0.000000
         CHANNELS 3 Yrotation Xrotation Zrotation
         End Site
         {
          OFFSET 18.090752 0.000000 0.000000
         }
        }
       }
      }
     }
    }
   }
  }
 }
 JOINT RightHip
 {
  OFFSET -7.826875 0.019532 0.001973
  CHANNELS 3 Yrotation Xrotation Zrotation
  JOINT RightKnee
  {
   OFFSET 0.000000 -40.546152 -0.001885
   CHANNELS 3 Yrotation Xrotation Zrotation
   JOINT RightAnkle
   {
    OFFSET 0.000000 -39.417092 -0.003189
    CHANNELS 3 Yrotation Xrotation Zrotation
    JOINT RightToe
    {
     OFFSET 0.000000 -7.579396 17.243563
     CHANNELS 3 Yrotation Xrotation Zrotation
     End Site
     {
      OFFSET 0.000000 -1.500329 6.694466
     }
    }
   }
  }
 }
 JOINT LeftHip
 {
  OFFSET 7.826875 0.019532 0.001973
  CHANNELS 3 Yrotation Xrotation Zrotation
  JOINT LeftKnee
  {
   OFFSET 0.000000 -40.546152 -0.001885
   CHANNELS 3 Yrotation Xrotation Zrotation
   JOINT LeftAnkle
   {
    OFFSET 0.000000 -39.417092 -0.003189
    CHANNELS 3 Yrotation Xrotation Zrotation
    JOINT LeftToe
    {
     OFFSET 0.000000 -7.579396 17.243563
     CHANNELS 3 Yrotation Xrotation Zrotation
     End Site
     {
      OFFSET 0.000000 -1.500329 6.694466
     }
    }
   }
  }
 }
}
MOTION
Frames: 7
Frame Time: 0.008333
-2.511860 88.464816 -4.452849 149.424466 -10.334741 -0.831704 5.813442 5.651517 3.438045 3.256973 3.274965 1.761934 4.088519 4.077517 2.232242 3.256978 3.274968 1.761933 -11.892744 24.508013 0.361875 -13.495230 1.690928 3.144389 13.946950 -7.815957 -4.590089 -0.412463 -25.940573 64.941787 -3.158171 -3.667843 1.105080 28.570248 -7.594187 -17.615812 -0.929982 -0.159568 0.614477 23.185705 11.405245 -82.665867 -12.635553 -2.154384 -15.805461 -1.156204 -2.013143 0.379413 -15.706906 13.168994 -2.104305 0.514843 -0.574103 0.929614 -4.089163 -3.212980 -0.320959 0.015812 0.479010 -0.088089 2.594721 -0.067403 2.988934 -9.360551 21.771063 -1.642536 -14.283279 -12.451034 0.143063 -0.030218 -0.000606 -0.015129
-2.560198 88.481728 -4.475656 149.440139 -10.407525 -0.855844 5.800034 5.625261 3.348601 3.251197 3.258275 1.719725 4.080828 4.057065 2.179256 3.251202 3.258278 1.719724 -11.890415 24.532228 0.397580 -13.502267 1.722877 3.183906 13.850994 -7.678036 -4.477038 -0.895827 -25.812055 65.224350 -2.460850 -3.265426 1.437679 27.901591 -7.611118 -17.513696 -0.878971 -0.168957 0.622586 23.306816 11.383545 -82.573899 -12.589067 -2.136253 -15.733558 -1.133865 -2.010953 0.395988 -15.716264 13.183373 -2.129659 0.531048 -0.476641 0.910832 -4.104262 -3.274407 -0.258255 0.017575 0.454646 -0.080079 2.580041 0.084503 2.977685 -9.332321 21.618187 -1.599134 -14.334535 -12.407600 0.150026 -0.035010 -0.005839 -0.020329
-2.609093 88.499292 -4.499810 149.459980 -10.473952 -0.876698 5.781383 5.596850 3.258633 3.242780 3.240928 1.676369 4.069826 4.035816 2.124807 3.242785 3.240931 1.676367 -11.884320 24.556751 0.431781 -13.504390 1.754601 3.220848 13.763347 -7.539281 -4.359590 -1.385079 -25.679187 65.483455 -1.771069 -2.790623 1.750958 27.242384 -7.628689 -17.387125 -0.829242 -0.173023 0.627401 23.440824 11.361326 -82.473991 -12.547643 -2.121291 -15.669894 -1.113059 -2.008794 0.417771 -15.737378 13.192767 -2.157693 0.543244 -0.383643 0.894181 -4.123868 -3.327466 -0.200132 0.018716 0.426843 -0.072050 2.561036 0.233254 2.956313 -9.305204 21.462924 -1.560600 -14.356067 -12.354243 0.161864 -0.036941 -0.014519 -0.025476
-2.658483 88.517182 -4.524641 149.481181 -10.531307 -0.896796 5.760688 5.564723 3.168114 3.233295 3.221713 1.632541 4.057478 4.012239 2.069743 3.233300 3.221716 1.632539 -11.878178 24.582678 0.463773 -13.505928 1.787957 3.255279 13.680834 -7.401114 -4.240692 -1.878127 -25.540039 65.730159 -1.082444 -2.262832 2.046498 26.594859 -7.639545 -17.239516 -0.786069 -0.172859 0.633958 23.584103 11.343773 -82.371665 -12.509596 -2.109914 -15.608354 -1.098021 -2.008497 0.437904 -15.763761 13.194202 -2.184841 0.549551 -0.293541 0.877956 -4.138774 -3.372092 -0.143960 0.019893 0.396090 -0.064427 2.543964 0.374941 2.930429 -9.285162 21.304889 -1.526424 -14.358105 -12.293126 0.177803 -0.036977 -0.024190 -0.030959
-2.710326 88.535047 -4.550776 149.497231 -10.576928 -0.903508 5.741690 5.528276 3.063290 3.223737 3.199842 1.588390 4.045026 3.985341 2.014251 3.223742 3.199845 1.588388 -11.873083 24.610970 0.493644 -13.508243 1.824300 3.287543 13.604819 -7.267489 -4.121403 -2.364203 -25.381280 65.967035 -0.385338 -1.728183 2.331963 25.955443 -7.636468 -17.075341 -0.746260 -0.169585 0.643253 23.724033 11.329211 -82.267886 -12.470397 -2.105520 -15.546783 -1.092586 -2.012517 0.454893 -15.788809 13.180024 -2.225708 0.550923 -0.208822 0.861600 -4.135304 -3.382031 -0.086635 0.023324 0.341699 -0.056172 2.536787 0.502090 2.889751 -9.270171 21.156200 -1.494733 -14.360798 -12.247316 0.198812 -0.035409 -0.019193 -0.035106
-2.759945 88.552864 -4.576126 149.511313 -10.613998 -0.928192 5.724697 5.487714 2.975490 3.215559 3.176101 1.543698 4.034292 3.956105 1.958079 3.215564 3.176105 1.543696 -11.870848 24.640951 0.522877 -13.513890 1.863152 3.319748 13.531819 -7.142616 -4.002401 -2.832397 -25.192778 66.193089 0.330617 -1.241548 2.615951 25.318972 -7.630586 -16.888995 -0.710917 -0.167342 0.654552 23.853258 11.313552 -82.163580 -12.426194 -2.109661 -15.484198 -1.093852 -2.014496 0.470005 -15.810156 13.170094 -2.247500 0.551050 -0.134282 0.847143 -4.118669 -3.406902 -0.033798 0.027015 0.309741 -0.047126 2.532792 0.623861 2.868054 -9.256070 20.997076 -1.462346 -14.358164 -12.179271 0.215476 -0.035652 -0.026998 -0.037861
-2.810159 88.570409 -4.602373 149.518623 -10.642056 -0.950398 5.712010 5.445450 2.887641 3.209840 3.151735 1.498198 4.026628 3.926080 1.900914 3.209846 3.151739 1.498196 -11.874041 24.671285 0.551339 -13.525895 1.903216 3.352361 13.454822 -7.027135 -3.886398 -3.268764 -24.971495 66.406169 1.068567 -0.847996 2.911266 24.689402 -7.640218 -16.673238 -0.686413 -0.170428 0.666992 23.976741 11.295911 -82.060096 -12.378904 -2.117076 -15.418876 -1.095412 -2.011617 0.480049 -15.827514 13.155636 -2.268892 0.555536 -0.070113 0.833931 -4.106477 -3.424452 0.014931 0.030738 0.280622 -0.037332 2.531162 0.738680 2.842768 -9.236936 20.836642 -1.429034 -14.351840 -12.110191 0.230974 -0.035353 -0.032860 -0.038617
